<svg xmlns="http://www.w3.org/2000/svg" width="64" height="64" viewBox="0 0 64 64">
  <defs>
    <linearGradient id="g" x1="0" y1="0" x2="1" y2="1">
      <stop offset="0%" stop-color="#8247E5"/>
      <stop offset="100%" stop-color="#A960EE"/>
    </linearGradient>
  </defs>
  <rect width="64" height="64" rx="12" fill="#0b0b12"/>
  <g transform="translate(8,8)">
    <path d="M29 10.2c-.7-.4-1.6-.4-2.4 0L21 13.5l-3.8 2.1-5.5 3.3c-.7.4-1.6.4-2.4 0L5 16.3c-.7-.4-1.2-1.2-1.2-2.1v-5c0-.8.4-1.6 1.2-2.1l4.3-2.5c.7-.4 1.6-.4 2.4 0L16 7.2c.7.4 1.2 1.2 1.2 2.1v3.3l3.8-2.2V7c0-.8-.4-1.6-1.2-2.1l-8-4.7c-.7-.4-1.6-.4-2.4 0L1.2 5C.4 5.4 0 6.2 0 7v9.4c0 .8.4 1.6 1.2 2.1l8.1 4.7c.7.4 1.6.4 2.4 0l5.5-3.2 3.8-2.2 5.5-3.2c.7-.4 1.6-.4 2.4 0l4.3 2.5c.7.4 1.2 1.2 1.2 2.1v5c0 .8-.4 1.6-1.2 2.1L29 28.8c-.7.4-1.6.4-2.4 0l-4.3-2.5c-.7-.4-1.2-1.2-1.2-2.1V21l-3.8 2.2v3.3c0 .8.4 1.6 1.2 2.1l8.1 4.7c.7.4 1.6.4 2.4 0l8.1-4.7c.7-.4 1.2-1.2 1.2-2.1v-9.5c0-.8-.4-1.6-1.2-2.1L29 10.2z" fill="url(#g)"/>
  </g>
</svg>

